<svg width="1200" height="630" viewBox="0 0 1200 630" fill="none" xmlns="http://www.w3.org/2000/svg">
<rect width="1200" height="630" fill="#1D0E2D"/>
<path d="M1027.59 455.526C1016.87 447.141 1015.16 431.563 1023.82 421.059L1111.52 314.642L1145.68 273.219C1150.9 279.158 1153.78 286.797 1153.78 294.705V334.547C1153.78 342.479 1150.89 350.125 1145.65 356.072L1060.59 452.469C1052.13 462.06 1037.67 463.402 1027.59 455.526" fill="#FDE0D8"/>
<path d="M1027.59 173.813C1037.67 165.937 1052.13 167.27 1060.6 176.862L1145.68 273.219L1111.52 314.642L1023.82 208.28C1015.17 197.775 1016.87 182.189 1027.59 173.813" fill="#E23E57"/>
<path d="M952.448 382.67H877.597V229.384C877.597 216.942 868.678 207.391 856.261 207.391C843.519 207.391 834.614 217.903 834.614 229.384V399.566C834.614 412.318 843.844 421.559 856.579 421.559H952.448C963.905 421.559 972.197 413.278 972.197 402.123C972.197 391.285 963.905 382.67 952.448 382.67" fill="#E23E57"/>
<path d="M785.578 127.883C773.3 124.461 762.148 131.274 758.815 143.255L666.768 474.155C663.439 486.128 669.466 497.736 681.745 501.159C693.704 504.485 704.861 497.665 708.191 485.692L800.238 154.799C803.572 142.81 797.538 131.218 785.578 127.883" fill="#FDE0D8"/>
<path d="M642.264 401.789C642.264 412.635 633.032 421.559 622.2 421.559C614.551 421.559 608.187 417.732 603.092 410.404L544.262 326.861C537.951 317.905 544.358 305.543 555.315 305.543C575.065 305.543 587.167 293.76 587.167 275.268C587.167 257.102 574.752 245.303 555.315 245.303H519.34V399.566C519.34 412.159 509.84 421.814 497.498 421.552C485.649 421.297 476.343 411.23 476.343 399.376V229.058C476.343 216.633 485.577 207.391 498.32 207.391H555.643C600.538 207.391 631.12 234.799 631.12 274.951C631.12 300.445 618.689 321.168 598.312 332.959L636.214 385.544C640.038 391.285 642.264 396.692 642.264 401.789" fill="#E23E57"/>
<path d="M386.539 205.604C377.308 205.604 371.257 209.749 366.476 218.356L321.253 296.761L276.03 218.356C270.935 209.431 264.885 205.604 255.652 205.604C243.864 205.604 234.631 214.529 234.631 226.002C234.631 230.781 235.902 235.236 239.396 240.333L299.59 339.771V401.607C299.59 414.033 308.822 423.6 320.923 423.6C333.354 423.6 342.586 414.033 342.586 401.607V339.771L403.093 240.333C406.275 235.569 407.561 231.099 407.561 226.311C407.561 214.529 398.328 205.604 386.539 205.604" fill="#E23E57"/>
<path d="M173.185 455.514C163.108 463.391 148.648 462.057 140.183 452.466L55.104 356.108L89.2575 314.694L176.953 421.048C185.614 431.552 183.91 447.138 173.185 455.514Z" fill="#E23E57"/>
<path d="M173.189 173.81C183.913 182.186 185.618 197.764 176.963 208.268L89.2577 314.694L55.1041 356.108C49.8817 350.169 47 342.539 47 334.623V294.781C47 286.857 49.8917 279.203 55.1336 273.264L140.185 176.866C148.648 167.275 163.111 165.933 173.189 173.81Z" fill="#FDE0D8"/>
</svg>
