<?xml version="1.0" encoding="UTF-8" standalone="no"?>
<!DOCTYPE svg PUBLIC "-//W3C//DTD SVG 1.1//EN" "http://www.w3.org/Graphics/SVG/1.1/DTD/svg11.dtd">
<svg width="100%" height="100%" viewBox="0 0 5000 5000" version="1.1" xmlns="http://www.w3.org/2000/svg" xmlns:xlink="http://www.w3.org/1999/xlink" xml:space="preserve" xmlns:serif="http://www.serif.com/" style="fillRule:evenodd;clipRule:evenodd;stroke-linejoin:round;stroke-miterlimit:2;">
    <g transform="matrix(3.10855,0,0,2.98108,-9537.81,-5251.37)">
        <ellipse cx="3872.48" cy="2600.19" rx="727.273" ry="755.981"/>
    </g>
    <g transform="matrix(2.16222,0,0,2.16222,479.088,1015.43)">
        <path d="M744.221,913.104C710.032,858.53 700.9,791.91 719.146,730.147L934.646,0.66L1150.15,730.147C1168.39,791.91 1159.26,858.53 1125.07,913.104C1037.02,1053.66 832.269,1053.66 744.221,913.104Z" style="fill:url(#_Linear1);"/>
        <path d="M1566.3,777.463L1155.64,604.844L1869.22,683.939L1566.3,777.463Z" style="fill:url(#_Linear2);"/>
        <path d="M1155.64,1236L1155.64,987.687L1481.66,849.412L1572.48,810.835L1608.91,795.364L1572.48,810.835L1572.83,811.391L1609.46,795.641L1869.22,683.939L1869.29,683.939L1869.29,908.594L1869.22,683.939L1155.64,1236Z" style="fill:url(#_Linear3);"/>
        <path d="M1608.91,795.364L1585.11,785.374L1566.3,777.463L1869.22,683.939L1627.78,787.038L1628.26,787.177L1608.91,795.364Z" style="fill:url(#_Linear4);"/>
        <path d="M1572.83,811.391L1572.48,810.835L1608.91,795.364L1628.26,787.177L1627.78,787.038L1869.22,683.939L1609.46,795.641L1572.83,811.391Z" style="fill:url(#_Linear5);"/>
        <path d="M302.986,777.463L713.652,604.844L0.069,683.939L713.652,354.726L713.652,604.844L302.986,777.463Z" style="fill:url(#_Linear6);"/>
        <path d="M713.652,1236L0,908.594L0,683.939L0.069,683.939L713.652,1236Z" style="fill:url(#_Linear7);"/>
        <path d="M261.116,795.058L261.114,795.058L302.979,777.461L302.986,777.463L284.185,785.374L261.116,795.058Z" style="fill:url(#_Linear8);"/>
        <path d="M1869.22,683.939L1155.64,604.844L1155.64,354.726L1869.22,683.939Z" style="fill:url(#_Linear9);"/>
        <path d="M1155.64,1236L1869.22,683.939L1869.29,908.594L1155.64,1236Z" style="fill:url(#_Linear10);"/>
        <path d="M713.652,987.687L387.632,849.412L296.812,810.835L260.387,795.364L261.116,795.058L713.652,987.687Z" style="fill:rgb(204,204,204);fillRule:nonzero;"/>
        <path d="M713.652,1236L0.069,683.939L259.832,795.641L296.465,811.391L296.812,810.835L260.387,795.364L296.812,810.835L387.632,849.412L713.652,987.687L713.652,1236Z" style="fill:url(#_Linear11);"/>
        <path d="M260.387,795.364L261.114,795.058L261.116,795.058L260.387,795.364ZM260.387,795.364L241.029,787.177L241.168,787.137L260.387,795.364Z" style="fill:url(#_Linear12);"/>
        <path d="M296.465,811.391L259.832,795.641L0.069,683.939L241.168,787.137L241.029,787.177L260.387,795.364L296.812,810.835L296.465,811.391Z" style="fill:url(#_Linear13);"/>
        <path d="M302.986,777.463L0.069,683.939L713.652,604.844L302.979,777.461L302.986,777.463Z" style="fill:url(#_Linear14);"/>
        <path d="M261.114,795.058L0.069,683.939L302.986,777.463L261.114,795.058Z" style="fill:url(#_Linear15);"/>
        <path d="M260.387,795.364L241.168,787.137L241.515,787.038L0.069,683.939L261.114,795.058L260.387,795.364Z" style="fill:url(#_Linear16);"/>
        <path d="M241.168,787.137L0.069,683.939L241.515,787.038L241.168,787.137Z" style="fill:url(#_Linear17);"/>
    </g>
    <defs>
        <linearGradient id="_Linear1" x1="0" y1="0" x2="1" y2="0" gradientUnits="userSpaceOnUse" gradientTransform="matrix(1.08533e-11,1056.25,-1056.25,1.08533e-11,934.646,4.88362)"><stop offset="0" style="stop-color:rgb(247,183,47);stop-opacity:1"/><stop offset="1" style="stop-color:rgb(237,31,39);stop-opacity:1"/></linearGradient>
        <linearGradient id="_Linear2" x1="0" y1="0" x2="1" y2="0" gradientUnits="userSpaceOnUse" gradientTransform="matrix(1.08546e-11,1056.38,-1056.38,1.08546e-11,1512.47,-64.5855)"><stop offset="0" style="stop-color:rgb(247,183,47);stop-opacity:1"/><stop offset="1" style="stop-color:rgb(237,31,39);stop-opacity:1"/></linearGradient>
        <linearGradient id="_Linear3" x1="0" y1="0" x2="1" y2="0" gradientUnits="userSpaceOnUse" gradientTransform="matrix(-646.477,316.708,-316.708,-646.477,1840.94,787.222)"><stop offset="0" style="stop-color:rgb(247,183,47);stop-opacity:1"/><stop offset="1" style="stop-color:rgb(237,31,39);stop-opacity:1"/></linearGradient>
        <linearGradient id="_Linear4" x1="0" y1="0" x2="1" y2="0" gradientUnits="userSpaceOnUse" gradientTransform="matrix(1.08546e-11,1056.38,-1056.38,1.08546e-11,1512.47,-64.5855)"><stop offset="0" style="stop-color:rgb(185,138,44);stop-opacity:1"/><stop offset="0.9" style="stop-color:rgb(178,36,36);stop-opacity:1"/><stop offset="1" style="stop-color:rgb(178,31,36);stop-opacity:1"/></linearGradient>
        <linearGradient id="_Linear5" x1="0" y1="0" x2="1" y2="0" gradientUnits="userSpaceOnUse" gradientTransform="matrix(-646.477,316.708,-316.708,-646.477,1840.94,787.222)"><stop offset="0" style="stop-color:rgb(185,138,44);stop-opacity:1"/><stop offset="0.9" style="stop-color:rgb(178,36,36);stop-opacity:1"/><stop offset="1" style="stop-color:rgb(178,31,36);stop-opacity:1"/></linearGradient>
        <linearGradient id="_Linear6" x1="0" y1="0" x2="1" y2="0" gradientUnits="userSpaceOnUse" gradientTransform="matrix(4.73197e-08,-1056.38,1056.38,4.73197e-08,356.826,-64.5855)"><stop offset="0" style="stop-color:rgb(247,183,47);stop-opacity:1"/><stop offset="1" style="stop-color:rgb(237,31,39);stop-opacity:1"/></linearGradient>
        <linearGradient id="_Linear7" x1="0" y1="0" x2="1" y2="0" gradientUnits="userSpaceOnUse" gradientTransform="matrix(646.477,-316.708,316.708,646.477,28.3534,787.222)"><stop offset="0" style="stop-color:rgb(247,183,47);stop-opacity:1"/><stop offset="1" style="stop-color:rgb(237,31,39);stop-opacity:1"/></linearGradient>
        <linearGradient id="_Linear8" x1="0" y1="0" x2="1" y2="0" gradientUnits="userSpaceOnUse" gradientTransform="matrix(4.73197e-08,-1056.38,1056.38,4.73197e-08,356.826,-64.5855)"><stop offset="0" style="stop-color:rgb(185,138,44);stop-opacity:1"/><stop offset="0.9" style="stop-color:rgb(178,36,36);stop-opacity:1"/><stop offset="1" style="stop-color:rgb(178,31,36);stop-opacity:1"/></linearGradient>
        <linearGradient id="_Linear9" x1="0" y1="0" x2="1" y2="0" gradientUnits="userSpaceOnUse" gradientTransform="matrix(1.08546e-11,1056.38,-1056.38,1.08546e-11,1512.47,-64.5855)"><stop offset="0" style="stop-color:rgb(198,146,44);stop-opacity:1"/><stop offset="0.9" style="stop-color:rgb(190,37,38);stop-opacity:1"/><stop offset="1" style="stop-color:rgb(189,32,38);stop-opacity:1"/></linearGradient>
        <linearGradient id="_Linear10" x1="0" y1="0" x2="1" y2="0" gradientUnits="userSpaceOnUse" gradientTransform="matrix(-646.477,316.708,-316.708,-646.477,1840.94,787.222)"><stop offset="0" style="stop-color:rgb(198,146,44);stop-opacity:1"/><stop offset="0.9" style="stop-color:rgb(190,37,38);stop-opacity:1"/><stop offset="1" style="stop-color:rgb(189,32,38);stop-opacity:1"/></linearGradient>
        <linearGradient id="_Linear11" x1="0" y1="0" x2="1" y2="0" gradientUnits="userSpaceOnUse" gradientTransform="matrix(646.477,-316.708,316.708,646.477,28.3534,787.222)"><stop offset="0" style="stop-color:rgb(198,146,44);stop-opacity:1"/><stop offset="0.9" style="stop-color:rgb(190,37,38);stop-opacity:1"/><stop offset="1" style="stop-color:rgb(189,32,38);stop-opacity:1"/></linearGradient>
        <linearGradient id="_Linear12" x1="0" y1="0" x2="1" y2="0" gradientUnits="userSpaceOnUse" gradientTransform="matrix(4.73197e-08,-1056.38,1056.38,4.73197e-08,356.826,-64.5855)"><stop offset="0" style="stop-color:rgb(147,110,42);stop-opacity:1"/><stop offset="1" style="stop-color:rgb(142,25,28);stop-opacity:1"/></linearGradient>
        <linearGradient id="_Linear13" x1="0" y1="0" x2="1" y2="0" gradientUnits="userSpaceOnUse" gradientTransform="matrix(646.477,-316.708,316.708,646.477,28.3534,787.222)"><stop offset="0" style="stop-color:rgb(147,110,42);stop-opacity:1"/><stop offset="1" style="stop-color:rgb(142,25,28);stop-opacity:1"/></linearGradient>
        <linearGradient id="_Linear14" x1="0" y1="0" x2="1" y2="0" gradientUnits="userSpaceOnUse" gradientTransform="matrix(4.73197e-08,-1056.38,1056.38,4.73197e-08,356.826,-64.5855)"><stop offset="0" style="stop-color:rgb(198,146,44);stop-opacity:1"/><stop offset="0.9" style="stop-color:rgb(190,37,38);stop-opacity:1"/><stop offset="1" style="stop-color:rgb(189,32,38);stop-opacity:1"/></linearGradient>
        <linearGradient id="_Linear15" x1="0" y1="0" x2="1" y2="0" gradientUnits="userSpaceOnUse" gradientTransform="matrix(4.73197e-08,-1056.38,1056.38,4.73197e-08,356.826,-64.5855)"><stop offset="0" style="stop-color:rgb(147,110,42);stop-opacity:1"/><stop offset="1" style="stop-color:rgb(142,25,28);stop-opacity:1"/></linearGradient>
        <linearGradient id="_Linear16" x1="0" y1="0" x2="1" y2="0" gradientUnits="userSpaceOnUse" gradientTransform="matrix(4.73197e-08,-1056.38,1056.38,4.73197e-08,356.826,-64.5855)"><stop offset="0" style="stop-color:rgb(118,89,35);stop-opacity:1"/><stop offset="1" style="stop-color:rgb(113,15,18);stop-opacity:1"/></linearGradient>
        <linearGradient id="_Linear17" x1="0" y1="0" x2="1" y2="0" gradientUnits="userSpaceOnUse" gradientTransform="matrix(646.477,-316.708,316.708,646.477,28.3534,787.222)"><stop offset="0" style="stop-color:rgb(118,89,35);stop-opacity:1"/><stop offset="1" style="stop-color:rgb(113,15,18);stop-opacity:1"/></linearGradient>
    </defs>
</svg>
