<?xml version="1.0" standalone="no"?>
<!DOCTYPE svg PUBLIC "-//W3C//DTD SVG 20010904//EN"
 "http://www.w3.org/TR/2001/REC-SVG-20010904/DTD/svg10.dtd">
<svg version="1.0" xmlns="http://www.w3.org/2000/svg"
 width="700.000000pt" height="700.000000pt" viewBox="0 0 700.000000 700.000000"
 preserveAspectRatio="xMidYMid meet">
<metadata>
Created by potrace 1.11, written by Peter Selinger 2001-2013
</metadata>
<g transform="translate(0.000000,700.000000) scale(0.100000,-0.100000)"
fill="#000000" stroke="none">
<path d="M3397 6654 c-1 -1 -51 -4 -112 -8 -60 -3 -123 -8 -140 -11 -16 -2
-48 -6 -70 -9 -71 -7 -228 -37 -310 -57 -44 -11 -88 -22 -98 -24 -172 -37
-549 -195 -767 -322 -109 -63 -342 -222 -370 -253 -3 -3 -30 -25 -60 -50 -379
-308 -711 -762 -903 -1235 -69 -169 -145 -416 -163 -531 -3 -21 -7 -41 -9 -44
-2 -3 -6 -26 -10 -50 -4 -25 -8 -52 -10 -60 -2 -8 -6 -40 -10 -70 -4 -30 -9
-66 -11 -80 -22 -136 -22 -537 0 -700 2 -14 6 -50 10 -80 50 -380 178 -758
378 -1117 27 -49 128 -213 140 -228 5 -5 43 -56 85 -113 120 -164 313 -370
458 -493 22 -19 42 -36 45 -39 14 -16 185 -144 255 -191 256 -174 623 -347
880 -416 109 -29 247 -63 270 -67 17 -2 53 -9 82 -15 28 -6 78 -13 110 -16 32
-3 69 -8 83 -11 122 -22 558 -22 710 0 14 2 49 7 78 10 29 4 76 11 105 17 28
6 66 13 82 15 36 6 218 51 260 65 97 30 254 83 280 95 17 7 59 25 95 39 99 41
317 156 427 226 141 89 325 227 413 309 338 314 539 575 733 955 33 63 107
224 107 232 0 3 16 48 35 100 76 203 145 488 170 708 23 205 23 604 0 725 -2
12 -7 48 -11 79 -3 31 -10 74 -14 96 -5 22 -12 56 -15 75 -20 122 -81 337
-138 490 -48 127 -67 171 -138 311 -43 87 -61 121 -101 190 -55 97 -219 326
-308 430 -160 187 -381 396 -520 492 -25 17 -47 33 -50 36 -27 32 -270 179
-425 258 -233 119 -603 246 -809 277 -21 4 -41 8 -45 10 -3 2 -28 7 -56 10
-27 4 -63 9 -80 12 -97 15 -250 26 -413 28 -68 1 -124 1 -125 0z"/>
</g>
</svg>
